<svg width="782" height="175" xmlns="http://www.w3.org/2000/svg" version="1.1">
 <title>Logo MeteoGate EUMETNET (flat)</title>

 <g>
  <title>Layer 1</title>
  <g fill-rule="evenodd" fill="none" id="Logo-MeteoGate-EUMETNET-(flat)">
   <g fill="#ffffff" id="Meteogate-icon">
    <path id="Combined-Shape" d="m87.625,0c48.39395,0 87.625,39.23105 87.625,87.625c0,48.39395 -39.23105,87.625 -87.625,87.625c-48.39395,0 -87.625,-39.23105 -87.625,-87.625c0,-48.39395 39.23105,-87.625 87.625,-87.625zm-12.75966,33.33135c-36.60107,0 -66.2721,29.67103 -66.2721,66.2721c0,7.74467 1.32847,15.17906 3.76995,22.08772c-0.25363,-1.98877 -0.38474,-4.01559 -0.38474,-6.07304c0,-26.17444 21.21858,-47.39302 47.39302,-47.39302c26.17444,0 47.39302,21.21858 47.39302,47.39302c0,26.17444 -21.21858,47.39301 -47.39302,47.39301c-1.52781,0 -3.03873,-0.07229 -4.52954,-0.21364c6.31747,1.9993 13.04446,3.07806 20.02341,3.07806c36.60107,0 66.2721,-29.67103 66.2721,-66.27211c0,-36.60107 -29.67103,-66.2721 -66.2721,-66.2721zm-26.95152,63.79829c-15.96353,0 -28.90453,12.941 -28.90453,28.90454c0,5.63169 1.6106,10.88721 4.39632,15.33107c2.6188,3.22449 5.53538,6.19763 8.70723,8.87816c4.54191,2.96857 9.9698,4.6953 15.80098,4.6953c15.96353,0 28.90453,-12.941 28.90453,-28.90453c0,-15.96354 -12.941,-28.90454 -28.90453,-28.90454z"/>
   </g>
   <path fill="#ffffff" id="Combined-Shape" d="m233.15769,17.57666l0,4.89553l-13.6264,0c-1.07965,0.13673 -1.87229,0.45472 -2.3779,0.95398c-0.50561,0.49925 -0.80047,1.25507 -0.88457,2.26744l0,6.44285l14.77706,0.19079l0,4.82435l-14.77706,0.19079l0,6.4571c0.04011,1.01909 0.33496,1.80059 0.88457,2.34448c0.54961,0.54389 1.34224,0.83858 2.3779,0.88407l13.6264,0l0,5.00222l-13.6264,0.56368c-2.92799,-0.02541 -5.08888,-0.46274 -6.48268,-1.312c-1.3938,-0.84927 -2.27768,-2.26723 -2.65164,-4.2539l0,-23.60187c0.25389,-2.23548 1.13777,-3.89091 2.65164,-4.9663c1.51387,-1.07538 3.67476,-1.58281 6.48268,-1.52228l13.6264,0.63907zm3.34231,-0.67969l6.04528,0l0,24.99424c0.21857,3.60157 2.74538,5.40236 7.58043,5.40236c4.83505,0 7.36187,-1.80079 7.58044,-5.40236l0,-24.99424l6.04528,0l0,24.99424c-0.02433,7.12304 -4.56624,10.68456 -13.62572,10.68456c-9.05947,0 -13.60138,-3.56152 -13.62571,-10.68456l0,-24.99424zm33.97202,0l5.90122,0l8.58797,28.23777l8.58797,-28.23777l5.90122,0l4.22202,35.488l-5.92179,0l-2.85123,-25.18503l-7.26516,25.18503l-5.34606,0l-7.26516,-25.18503l-2.85123,25.18503l-5.92179,0l4.22202,-35.488zm58.2887,0.67969l0,4.89553l-13.6264,0c-1.07966,0.13673 -1.87229,0.45472 -2.3779,0.95398c-0.50561,0.49925 -0.80047,1.25507 -0.88457,2.26744l0,6.44285l14.77706,0.19079l0,4.82435l-14.77706,0.19079l0,6.4571c0.04011,1.01909 0.33496,1.80059 0.88457,2.34448c0.54961,0.54389 1.34224,0.83858 2.3779,0.88407l13.6264,0l0,5.00222l-13.6264,0.56368c-2.92798,-0.02541 -5.08888,-0.46274 -6.48268,-1.312c-1.3938,-0.84927 -2.27768,-2.26723 -2.65164,-4.2539l0,-23.60187c0.25389,-2.23548 1.13777,-3.89091 2.65164,-4.9663c1.51387,-1.07538 3.67477,-1.58281 6.48268,-1.52228l13.6264,0.63907zm3.43928,-0.67969l26.29165,0l0,5.47905l-10.10725,0.09769l0,29.91126l-6.07715,0l0,-29.91126l-10.10725,0l0,-5.57674zm29.55,0l4.85347,0l16.20164,25.37583l0,-25.37583l6.00418,0l0,35.488l-4.86203,0l-16.10297,-25.18503l0,25.18503l-6.09429,0l0,-35.488zm53.51072,0.67969l0,4.89553l-13.6264,0c-1.07966,0.13673 -1.87229,0.45472 -2.3779,0.95398c-0.50561,0.49925 -0.80047,1.25507 -0.88457,2.26744l0,6.44285l14.77706,0.19079l0,4.82435l-14.77706,0.19079l0,6.4571c0.04011,1.01909 0.33496,1.80059 0.88457,2.34448c0.54961,0.54389 1.34224,0.83858 2.3779,0.88407l13.6264,0l0,5.00222l-13.6264,0.56368c-2.92798,-0.02541 -5.08888,-0.46274 -6.48268,-1.312c-1.3938,-0.84927 -2.27768,-2.26723 -2.65164,-4.2539l0,-23.60187c0.25389,-2.23548 1.13777,-3.89091 2.65164,-4.9663c1.51387,-1.07538 3.67477,-1.58281 6.48268,-1.52228l13.6264,0.63907zm3.23928,-0.67969l26.29165,0l0,5.47905l-10.10725,0.09769l0,29.91126l-6.07715,0l0,-29.91126l-10.10725,0l0,-5.57674zm-200.05,52.77303l14.27832,0l21.30063,70.33417l21.17581,-70.33417l14.29524,0l10.4,87.83l-14.33593,0l-7.36907,-62.8l-17.39665,62.8l-13.79835,0l-17.5,-62.45l-7,62.45l-14.2,0l10.15,-87.83zm137.17452,28.04677c4.80533,4.26996 5.27548,12.23003 5.27548,16.33598c0,6.40867 -0.9,16.91544 -19.9,16.91544l-18.52867,0c0.15158,6.39283 1.49025,10.70479 4.01603,12.93586c2.00856,1.87672 5.85389,2.92166 11.53599,3.13484l20.97665,0l0,8.68111c-4.5924,0.80197 -12.02756,2.45381 -23.38315,2.38c-5.53531,-0.05367 -16.40864,-0.52619 -21.74223,-7.09901c-5.43166,-6.34181 -6.00536,-17.85186 -6.02412,-25.57108l-0.0005,-0.41724c0,-7.4994 0.63633,-19.28565 6.00406,-25.26783c5.3271,-6.4493 16.29591,-6.82626 21.63259,-6.84405l0.52286,-0.00079c5.10941,0 14.83422,0.5686 19.61501,4.81677zm-19.62452,5.88323c-5.25117,-0.14788 -8.84708,1.0916 -10.78772,3.71844c-1.90047,2.54563 -2.87128,7.45615 -2.91243,14.73156l18.66723,0c2.38861,-0.20724 4.13292,-0.84836 5.23292,-1.92338c1.65019,-1.61252 1.65019,-4.88299 1.65019,-5.78046c0,-2.0972 -0.22519,-6.53324 -3.15592,-8.68755c-1.93423,-1.45589 -4.83232,-2.14209 -8.69427,-2.05861zm40.94,-9.88422l2.15252,-17.85578l11.54451,0l0,17.85578l16.17297,0l0,11.89922l-16.17297,0l0.00297,30.50035c0.07114,3.17275 0.71308,5.53502 1.92581,7.0868c1.21272,1.55177 3.10656,2.43423 5.68151,2.64735l7.85268,0.8305l0,10.82044l-12.09382,0c-6.50533,-0.22307 -11.14045,-1.97644 -13.90535,-5.26012c-2.76665,-3.16076 -4.13359,-8.53575 -4.10083,-16.12497l0.47,-30.50035l-10,0l0,-9.50582l10.47,-2.3934zm85.33452,4.00099c4.80533,4.26996 5.27548,12.23003 5.27548,16.33598c0,6.40867 -0.9,16.91544 -19.9,16.91544l-18.52867,0c0.15158,6.39283 1.49025,10.70479 4.01603,12.93586c2.00856,1.87672 5.85389,2.92166 11.53599,3.13484l20.97665,0l0,8.68111c-4.5924,0.80197 -12.02756,2.45381 -23.38315,2.38c-5.53531,-0.05367 -16.40864,-0.52619 -21.74222,-7.09901c-5.43167,-6.34181 -6.00537,-17.85186 -6.02413,-25.57108l-0.0005,-0.41724c0,-7.4994 0.63633,-19.28565 6.00406,-25.26783c5.3271,-6.4493 16.29591,-6.82626 21.63259,-6.84405l0.52286,-0.00079c5.10941,0 14.83422,0.5686 19.61501,4.81677zm-19.62452,5.88323c-5.25117,-0.14788 -8.84708,1.0916 -10.78772,3.71844c-1.90047,2.54563 -2.87128,7.45615 -2.91243,14.73156l18.66722,0c2.38862,-0.20724 4.13293,-0.84836 5.23293,-1.92338c1.65019,-1.61252 1.65019,-4.88299 1.65019,-5.78046c0,-2.0972 -0.22519,-6.53324 -3.15592,-8.68755c-1.93423,-1.45589 -4.83232,-2.14209 -8.69427,-2.05861zm85.65,-3.58885c4.18089,4.74076 6.24756,13.23705 6.2,25.48885c0.18376,11.64427 -1.78291,20.03054 -5.9,25.1588c-5.97272,7.19398 -16.24239,7.43347 -22.271,7.44142l-0.579,0.00028c-5.92957,0 -16.76796,-0.51722 -22.45,-7.4417c-4.14709,-4.70244 -6.23042,-13.0887 -6.25,-25.1588c-0.03333,-12.30573 2.01667,-20.80201 6.15,-25.48885c5.90476,-6.69549 16.19338,-7.08769 21.75271,-7.10986l1.59412,-0.00052c5.55332,0.01535 15.78047,0.33786 21.75317,7.11038zm-22.19656,4.48943l-0.50691,-0.00022c-2.64934,0.00413 -7.8621,0.14835 -10.81892,4.58065c-2.01406,3.01911 -3.01297,8.49214 -2.99673,16.41908c0.00954,7.77515 1.02469,13.17731 3.04546,16.20647c2.76871,4.46052 8.04997,4.79369 10.93929,4.79369l0.37308,-0.00039c2.94896,-0.00854 7.8806,-0.20667 10.76113,-4.7933c2.00615,-3.30346 2.96445,-8.70562 2.87491,-16.20647c0.02318,-7.89221 -0.98386,-13.36523 -3.02109,-16.41908c-2.92853,-4.3899 -7.95614,-4.57281 -10.65022,-4.58043zm44.63082,-24.49681c5.07147,-7.80272 13.72671,-11.52064 25.96574,-11.15377c9.41847,0 18.87514,1.18667 28.37,3.56l0,11.31562c-21.53892,-2.50569 -34.18452,-2.22062 -37.93681,0.85518c-8.52014,5.5128 -7.93393,21.07181 -8.00201,28.86865c-0.06807,7.79683 -0.04124,25.0331 7.58755,29.01872c7.64081,4.09999 20.21997,1.414 28.11127,-1.14817l0,-20.23063l-17.72177,0l0,-11.42235c5.51165,-0.6367 10.89131,-1.02309 16.13897,-1.15916c5.24765,-0.13608 10.49859,-0.02534 15.7528,0.3322l0,48.65994l-11.07,0l-2.027,-6.06934c-8.27297,4.63586 -16.67397,6.85897 -25.203,6.66934c-9.08765,-0.26031 -15.7429,-3.69237 -19.96574,-10.29618c-4.22284,-6.60382 -6.33426,-18.04676 -6.33426,-34.32882c-0.09654,-15.69294 2.01488,-26.85002 6.33426,-33.47123zm117.0483,17.49057c3.97379,3.17753 5.99971,8.34609 6.07777,15.50566l0,44.5l-11.54516,0l-2.49541,-6.89401c-0.86405,0.76242 -11.28911,7.60415 -23.31868,7.60415c-4.20985,0 -7.73832,-1.01751 -11.04642,-3.70988c-3.29959,-2.78801 -5.15466,-7.00026 -5.15466,-12.50026l0,-4.98066c0,-2.35308 0.18789,-7.63546 4.79744,-11.97314c3.40211,-3.3665 9.06922,-4.91238 14.90256,-4.91238l19.10271,0c0.0631,-7.46859 0.0631,-10.74639 -2.70409,-13.1006c-1.84479,-1.56947 -5.311,-2.43863 -10.39862,-2.60747l-21.05,0l0,-8.5659c10.02771,-2.69936 18.97644,-2.95122 23.52067,-2.95962l1.62043,-0.00053c4.69769,0.0118 12.2931,0.27798 17.69146,4.59464zm-8.67256,29.65566l-13.76727,0.70697c-3.30345,0.27549 -5.84845,1.1363 -7.63501,2.58241c-1.82461,1.52467 -2.74387,3.72902 -2.75777,6.61304l0,2.96686c0.07656,2.84725 1.05499,4.91834 2.9353,6.21327c1.87442,1.28383 4.31742,1.65421 5.98261,1.61745c3.16214,0.0773 13.03435,-2.82308 15.24214,-4.03l0,-16.67zm32.71,-33.43422l2.15252,-17.85578l11.54451,0l0,17.85578l16.17297,0l0,11.89922l-16.17297,0l0.00297,30.50035c0.07114,3.17275 0.71308,5.53502 1.92581,7.0868c1.21272,1.55177 3.10656,2.43423 5.68151,2.64735l7.85268,0.8305l0,10.82044l-12.09382,0c-6.50533,-0.22307 -11.14045,-1.97644 -13.90535,-5.26012c-2.76665,-3.16076 -4.13359,-8.53575 -4.10083,-16.12497l0.47,-30.50035l-10,0l0,-9.50582l10.47,-2.3934zm85.15452,4.00099c4.80533,4.26996 5.27548,12.23003 5.27548,16.33598c0,6.40867 -0.9,16.91544 -19.9,16.91544l-18.52867,0c0.15158,6.39283 1.49025,10.70479 4.01603,12.93586c2.00856,1.87672 5.85389,2.92166 11.53599,3.13484l20.97665,0l0,8.68111c-4.5924,0.80197 -12.02756,2.45381 -23.38315,2.38c-5.53531,-0.05367 -16.40864,-0.52619 -21.74223,-7.09901c-5.43166,-6.34181 -6.00536,-17.85186 -6.02412,-25.57108l-0.0005,-0.41724c0,-7.4994 0.63633,-19.28565 6.00406,-25.26783c5.3271,-6.4493 16.2959,-6.82626 21.63259,-6.84405l0.52286,-0.00079c5.10941,0 14.83422,0.5686 19.61501,4.81677zm-19.62452,5.88323c-5.25117,-0.14788 -8.84708,1.0916 -10.78772,3.71844c-1.90047,2.54563 -2.87128,7.45615 -2.91243,14.73156l18.66723,0c2.38861,-0.20724 4.13292,-0.84836 5.23292,-1.92338c1.65019,-1.61252 1.65019,-4.88299 1.65019,-5.78046c0,-2.0972 -0.22519,-6.53324 -3.15592,-8.68755c-1.93423,-1.45589 -4.83232,-2.14209 -8.69427,-2.05861z"/>
  </g>
 </g>
</svg>